<svg xmlns="http://www.w3.org/2000/svg" style="display:none">
<defs></defs>
<symbol id="i-pin" viewBox="0 0 24 24"><path class="ic" d="M12 21c5-6 7-8.5 7-12a7 7 0 10-14 0c0 3.5 2 6 7 12z"/><circle class="ic" cx="12" cy="9" r="2.4"/></symbol>
<symbol id="i-arrow" viewBox="0 0 24 24"><path class="ic" d="M4 12h14M12 6l6 6-6 6"/></symbol>
<symbol id="i-chevron" viewBox="0 0 24 24"><path class="ic" d="M6 9l6 6 6-6"/></symbol>
<symbol id="i-check" viewBox="0 0 24 24"><path class="ic" d="M5 12.5l4.5 4.5L19 7"/></symbol>
<symbol id="i-x" viewBox="0 0 24 24"><path class="ic" d="M7 7l10 10M17 7L7 17"/></symbol>
<symbol id="i-plus" viewBox="0 0 24 24"><path class="ic" d="M12 5v14M5 12h14"/></symbol>
<symbol id="i-compass" viewBox="0 0 24 24"><circle class="ic" cx="12" cy="12" r="9"/><path class="ic" d="M15.5 8.5l-2.4 5.1L8 16l2.4-5.1z"/></symbol>
<symbol id="i-cap" viewBox="0 0 24 24"><path class="ic" d="M3 9l9-4 9 4-9 4z"/><path class="ic" d="M7 11v4c0 1.2 2.2 2.2 5 2.2s5-1 5-2.2v-4"/><path class="ic" d="M21 9v5"/></symbol>
<symbol id="i-sprout" viewBox="0 0 24 24"><path class="ic" d="M12 21V11"/><path class="ic" d="M12 14c0-3-2.3-5-6-5 0 3 2.3 5 6 5zM12 12c0-3 2.3-5 6-5 0 3-2.3 5-6 5z"/></symbol>
<symbol id="i-building" viewBox="0 0 24 24"><rect class="ic" x="5" y="4" width="14" height="17" rx="1.5"/><path class="ic" d="M8.5 8h2M13.5 8h2M8.5 12h2M13.5 12h2M9.5 21v-3h5v3"/></symbol>
<symbol id="i-target" viewBox="0 0 24 24"><circle class="ic" cx="12" cy="12" r="8.5"/><circle class="ic" cx="12" cy="12" r="4.5"/><circle class="ic" cx="12" cy="12" r="1.2"/></symbol>
<symbol id="i-clock" viewBox="0 0 24 24"><circle class="ic" cx="12" cy="12" r="8.5"/><path class="ic" d="M12 7v5l3.5 2"/></symbol>
<symbol id="i-heart" viewBox="0 0 24 24"><path class="ic" d="M12 20C6.5 16 4 12.8 4 9.4 4 7 5.9 5 8.3 5c1.7 0 2.9.9 3.7 2.3C12.8 5.9 14 5 15.7 5 18.1 5 20 7 20 9.4c0 3.4-2.5 6.6-8 10.6z"/></symbol>
<symbol id="i-rocket" viewBox="0 0 24 24"><path class="ic" d="M12 3c2.8 1.6 4.2 4.4 4.2 8.4L14 15h-4l-2.2-3.6C7.8 7.4 9.2 4.6 12 3z"/><circle class="ic" cx="12" cy="9.5" r="1.6"/><path class="ic" d="M10 15l-2 3M14 15l2 3M10.5 18h3"/></symbol>
<symbol id="i-shield" viewBox="0 0 24 24"><path class="ic" d="M12 3l7 2.6v5c0 5-3.2 7.8-7 9.4-3.8-1.6-7-4.4-7-9.4v-5z"/><path class="ic" d="M9 12l2 2 4-4"/></symbol>
<symbol id="i-network" viewBox="0 0 24 24"><circle class="ic" cx="12" cy="5" r="2.2"/><circle class="ic" cx="5" cy="18" r="2.2"/><circle class="ic" cx="19" cy="18" r="2.2"/><path class="ic" d="M12 7.2v3.3M10.5 12.5L6.5 16.4M13.5 12.5l4 3.9"/><circle class="ic" cx="12" cy="12" r="1"/></symbol>
<symbol id="i-flow" viewBox="0 0 24 24"><rect class="ic" x="4" y="4" width="7" height="5" rx="1.2"/><rect class="ic" x="13" y="15" width="7" height="5" rx="1.2"/><path class="ic" d="M7.5 9v4.5a2 2 0 002 2H13"/></symbol>
<symbol id="i-chart" viewBox="0 0 24 24"><path class="ic" d="M4 20V4M4 20h16"/><path class="ic" d="M8 16l3.5-4 3 2.5L20 8"/></symbol>
<symbol id="i-layers" viewBox="0 0 24 24"><path class="ic" d="M12 4l8 4-8 4-8-4z"/><path class="ic" d="M4 12l8 4 8-4M4 16l8 4 8-4"/></symbol>
<symbol id="i-factory" viewBox="0 0 24 24"><path class="ic" d="M4 20V10l5 3V10l5 3V7h6v13z"/><path class="ic" d="M7 16h1.5M12 16h1.5M17 16h1"/></symbol>
<symbol id="i-cart" viewBox="0 0 24 24"><path class="ic" d="M4 5h2l2 10h9l2-7H8"/><circle class="ic" cx="9" cy="19" r="1.4"/><circle class="ic" cx="17" cy="19" r="1.4"/></symbol>
<symbol id="i-bed" viewBox="0 0 24 24"><path class="ic" d="M4 18v-8M4 12h11a4 4 0 014 4v2M4 18h16"/><circle class="ic" cx="8" cy="10" r="1.6"/></symbol>
<symbol id="i-truck" viewBox="0 0 24 24"><path class="ic" d="M3 7h11v9H3z"/><path class="ic" d="M14 10h4l3 3v3h-7"/><circle class="ic" cx="7" cy="18" r="1.6"/><circle class="ic" cx="17" cy="18" r="1.6"/></symbol>
<symbol id="i-monitor" viewBox="0 0 24 24"><rect class="ic" x="3" y="5" width="18" height="12" rx="1.5"/><path class="ic" d="M9 21h6M12 17v4"/></symbol>
<symbol id="i-gear" viewBox="0 0 24 24"><circle class="ic" cx="12" cy="12" r="3"/><path class="ic" d="M12 4v2M12 18v2M20 12h-2M6 12H4M17.7 6.3l-1.4 1.4M7.7 16.3l-1.4 1.4M17.7 17.7l-1.4-1.4M7.7 7.7L6.3 6.3"/></symbol>
<symbol id="i-users" viewBox="0 0 24 24"><circle class="ic" cx="9" cy="9" r="3"/><path class="ic" d="M3 20c1-4 3.5-6 6-6s5 2 6 6"/><path class="ic" d="M16 6a3 3 0 010 6M21 20c-.6-2.6-1.8-4.3-3.5-5"/></symbol>
<symbol id="i-bulb" viewBox="0 0 24 24"><path class="ic" d="M12 3a6 6 0 00-3.7 10.7c.7.7 1.1 1.5 1.1 2.6h5.2c0-1.1.4-1.9 1.1-2.6A6 6 0 0012 3z"/><path class="ic" d="M9.5 19h5M10.5 21.5h3"/></symbol>
<symbol id="i-phone" viewBox="0 0 24 24"><path class="ic" d="M6 3c-1.4 0-2.7 1.3-2.7 2.7C3.3 12.4 9.6 18.7 16.3 18.7 17.7 18.7 19 17.4 19 16l-3.4-2-2 2c-2-1-4.7-3.7-5.7-5.7l2-2z"/></symbol>
<symbol id="i-mail" viewBox="0 0 24 24"><rect class="ic" x="3" y="5" width="18" height="14" rx="2"/><path class="ic" d="M4 7l8 6 8-6"/></symbol>
<symbol id="i-globe" viewBox="0 0 24 24"><circle class="ic" cx="12" cy="12" r="8.5"/><path class="ic" d="M3.5 12h17M12 3.5c2.2 2.3 3 5.3 3 8.5s-.8 6.2-3 8.5c-2.2-2.3-3-5.3-3-8.5s.8-6.2 3-8.5z"/></symbol>
<symbol id="i-briefcase" viewBox="0 0 24 24"><rect class="ic" x="3" y="8" width="18" height="12" rx="2"/><path class="ic" d="M8 8V6a2 2 0 012-2h4a2 2 0 012 2v2M3 13h18"/></symbol>
<symbol id="i-star" viewBox="0 0 24 24"><path class="ic" d="M12 4l2.3 4.8 5.2.6-3.9 3.6 1 5.2L12 15.9 7.4 18.8l1-5.2L4.5 10l5.2-.6z"/></symbol>
<symbol id="i-bolt" viewBox="0 0 24 24"><path class="ic" d="M13 3L5 13h6l-1 8 8-10h-6z"/></symbol>
<symbol id="i-doc" viewBox="0 0 24 24"><path class="ic" d="M7 3h7l4 4v14H7z"/><path class="ic" d="M14 3v4h4M10 12h6M10 16h6"/></symbol>
<symbol id="i-speech" viewBox="0 0 24 24"><path class="ic" d="M5 5h14a2 2 0 012 2v8a2 2 0 01-2 2H10l-4 4v-4H5a2 2 0 01-2-2V7a2 2 0 012-2z"/></symbol>
<symbol id="i-brain" viewBox="0 0 24 24"><path class="ic" d="M9 4a3 3 0 00-3 3 3 3 0 00-1 5 3 3 0 001 5 3 3 0 003 3V4z"/><path class="ic" d="M15 4a3 3 0 013 3 3 3 0 011 5 3 3 0 01-1 5 3 3 0 01-3 3V4z"/></symbol>
<symbol id="i-scale" viewBox="0 0 24 24"><path class="ic" d="M12 4v16M6 20h12M5 8l-3 6h6zM19 8l-3 6h6zM5 8l7-2 7 2"/></symbol>
<symbol id="i-map" viewBox="0 0 24 24"><path class="ic" d="M9 5l6-2 6 2v14l-6 2-6-2-6 2V5z"/><path class="ic" d="M9 5v14M15 3v14"/></symbol>
<symbol id="i-eye" viewBox="0 0 24 24"><path class="ic" d="M2 12s3.5-7 10-7 10 7 10 7-3.5 7-10 7-10-7-10-7z"/><circle class="ic" cx="12" cy="12" r="3"/></symbol>
<symbol id="i-handshake" viewBox="0 0 24 24"><path class="ic" d="M8 12l3-3 2 2 4-4 4 4M3 9l4-4 4 4"/><path class="ic" d="M13 11l-3 3a1.5 1.5 0 01-2-2l3-3M11 14l1 1a1.5 1.5 0 002-2"/></symbol>
<symbol id="i-linkedin" viewBox="0 0 24 24"><rect class="ic" x="3" y="3" width="18" height="18" rx="2"/><path class="ic" d="M7 10v7M7 7v.01M11 17v-4a2 2 0 014 0v4M11 10v7"/></symbol>
<symbol id="i-facebook" viewBox="0 0 24 24"><path class="ic" d="M14 8h2V5h-2a3 3 0 00-3 3v2H9v3h2v6h3v-6h2l1-3h-3V8a1 1 0 011-1z"/></symbol>
<symbol id="i-instagram" viewBox="0 0 24 24"><rect class="ic" x="3" y="3" width="18" height="18" rx="5"/><circle class="ic" cx="12" cy="12" r="4"/><path class="ic" d="M17.5 6.5v.01"/></symbol>
<symbol id="i-youtube" viewBox="0 0 24 24"><rect class="ic" x="3" y="6" width="18" height="12" rx="3"/><path class="ic" d="M10 9.5l5 2.5-5 2.5z"/></symbol>
<symbol id="i-whatsapp" viewBox="0 0 24 24"><path class="ic" d="M4 20l1.5-4.2A7.5 7.5 0 1112 19.5c-1.3 0-2.5-.3-3.6-.9z"/><path class="ic" d="M9 9.5c0 3 2.5 5.5 5.5 5.5.5 0 1-.5 1-1l-1.5-1-1 .8c-1-.5-2-1.5-2.5-2.5l.8-1-1-1.5c-.5 0-1 .5-1 1z"/></symbol>
</svg>
